<?xml version="1.0" standalone="no"?><!DOCTYPE svg PUBLIC "-//W3C//DTD SVG 1.1//EN" "http://www.w3.org/Graphics/SVG/1.1/DTD/svg11.dtd">
<svg x="0.0000mm" y="0.0000mm" width="70.9080mm" height="26.4580mm" viewBox="0.0000 0.0000 70.9080 26.4580" version="1.1" xmlns="http://www.w3.org/2000/svg" shape-rendering="crispEdges">
<title>TBarCode - 11.12.1.16467</title>
<desc>BarCode licensed to MEM:TEC-IT Datenverarbeitung GmbH Internal License</desc>
<g fill="rgb(0%,0%,0%)">
</g>
<g fill="rgb(100%,100%,100%)">
<rect x="0.0000" y="0.0000" width="70.9080" height="26.4580" />
</g>
<g fill="rgb(0%,0%,0%)">
</g>
<g fill="rgb(0%,0%,0%)">
<rect x="0.0000" y="0.0000" width="1.0583" height="26.4580" />
<rect x="1.5875" y="0.0000" width="0.5292" height="26.4580" />
<rect x="3.1750" y="0.0000" width="0.5292" height="26.4580" />
<rect x="5.8208" y="0.0000" width="0.5292" height="26.4580" />
<rect x="7.9375" y="0.0000" width="0.5292" height="26.4580" />
<rect x="10.0541" y="0.0000" width="1.0583" height="26.4580" />
<rect x="11.6416" y="0.0000" width="0.5292" height="26.4580" />
<rect x="13.2291" y="0.0000" width="0.5292" height="26.4580" />
<rect x="14.2874" y="0.0000" width="1.0583" height="26.4580" />
<rect x="17.4624" y="0.0000" width="2.1167" height="26.4580" />
<rect x="20.1082" y="0.0000" width="0.5292" height="26.4580" />
<rect x="21.6957" y="0.0000" width="0.5292" height="26.4580" />
<rect x="23.2832" y="0.0000" width="0.5292" height="26.4580" />
<rect x="24.3416" y="0.0000" width="1.0583" height="26.4580" />
<rect x="26.4582" y="0.0000" width="0.5292" height="26.4580" />
<rect x="29.1040" y="0.0000" width="0.5292" height="26.4580" />
<rect x="30.1624" y="0.0000" width="2.1167" height="26.4580" />
<rect x="33.3373" y="0.0000" width="0.5292" height="26.4580" />
<rect x="34.9248" y="0.0000" width="0.5292" height="26.4580" />
<rect x="36.5123" y="0.0000" width="0.5292" height="26.4580" />
<rect x="38.0998" y="0.0000" width="1.0583" height="26.4580" />
<rect x="40.7456" y="0.0000" width="0.5292" height="26.4580" />
<rect x="41.8040" y="0.0000" width="1.5875" height="26.4580" />
<rect x="43.9206" y="0.0000" width="2.1167" height="26.4580" />
<rect x="46.5664" y="0.0000" width="1.0583" height="26.4580" />
<rect x="48.1539" y="0.0000" width="1.0583" height="26.4580" />
<rect x="50.2706" y="0.0000" width="1.0583" height="26.4580" />
<rect x="52.3873" y="0.0000" width="0.5292" height="26.4580" />
<rect x="54.5039" y="0.0000" width="2.1167" height="26.4580" />
<rect x="57.1497" y="0.0000" width="0.5292" height="26.4580" />
<rect x="58.2081" y="0.0000" width="0.5292" height="26.4580" />
<rect x="59.7956" y="0.0000" width="0.5292" height="26.4580" />
<rect x="60.8539" y="0.0000" width="1.0583" height="26.4580" />
<rect x="64.0289" y="0.0000" width="1.0583" height="26.4580" />
<rect x="66.6747" y="0.0000" width="1.5875" height="26.4580" />
<rect x="68.7913" y="0.0000" width="0.5292" height="26.4580" />
<rect x="69.8497" y="0.0000" width="1.0583" height="26.4580" />
</g>
</svg>
