<?xml version="1.0" standalone="no"?><!DOCTYPE svg PUBLIC "-//W3C//DTD SVG 1.1//EN" "http://www.w3.org/Graphics/SVG/1.1/DTD/svg11.dtd">
<svg x="0.0000mm" y="0.0000mm" width="117.4750mm" height="26.4580mm" viewBox="0.0000 0.0000 117.4750 26.4580" version="1.1" xmlns="http://www.w3.org/2000/svg" shape-rendering="crispEdges">
<title>TBarCode - 11.12.1.16467</title>
<desc>BarCode licensed to MEM:TEC-IT Datenverarbeitung GmbH Internal License</desc>
<g fill="rgb(0%,0%,0%)">
</g>
<g fill="rgb(100%,100%,100%)">
<rect x="0.0000" y="0.0000" width="117.4750" height="26.4580" />
</g>
<g fill="rgb(0%,0%,0%)">
</g>
<g fill="rgb(0%,0%,0%)">
<rect x="0.0000" y="0.0000" width="1.0583" height="26.4580" />
<rect x="1.5875" y="0.0000" width="0.5292" height="26.4580" />
<rect x="3.1750" y="0.0000" width="0.5292" height="26.4580" />
<rect x="5.8208" y="0.0000" width="1.0583" height="26.4580" />
<rect x="8.4667" y="0.0000" width="0.5292" height="26.4580" />
<rect x="10.5833" y="0.0000" width="0.5292" height="26.4580" />
<rect x="11.6417" y="0.0000" width="1.0583" height="26.4580" />
<rect x="13.2292" y="0.0000" width="1.0583" height="26.4580" />
<rect x="15.3458" y="0.0000" width="1.0583" height="26.4580" />
<rect x="17.4625" y="0.0000" width="0.5292" height="26.4580" />
<rect x="19.5792" y="0.0000" width="1.0583" height="26.4580" />
<rect x="21.1667" y="0.0000" width="1.5875" height="26.4580" />
<rect x="23.2833" y="0.0000" width="0.5292" height="26.4580" />
<rect x="25.4000" y="0.0000" width="2.1167" height="26.4580" />
<rect x="28.0458" y="0.0000" width="0.5292" height="26.4580" />
<rect x="29.1042" y="0.0000" width="2.1167" height="26.4580" />
<rect x="31.7500" y="0.0000" width="0.5292" height="26.4580" />
<rect x="33.3375" y="0.0000" width="0.5292" height="26.4580" />
<rect x="34.9250" y="0.0000" width="0.5292" height="26.4580" />
<rect x="35.9833" y="0.0000" width="1.0583" height="26.4580" />
<rect x="38.1000" y="0.0000" width="0.5292" height="26.4580" />
<rect x="40.7458" y="0.0000" width="1.0583" height="26.4580" />
<rect x="42.3333" y="0.0000" width="1.0583" height="26.4580" />
<rect x="44.4500" y="0.0000" width="1.0583" height="26.4580" />
<rect x="46.5667" y="0.0000" width="0.5292" height="26.4580" />
<rect x="47.6250" y="0.0000" width="1.0583" height="26.4580" />
<rect x="50.2708" y="0.0000" width="1.5875" height="26.4580" />
<rect x="52.3875" y="0.0000" width="0.5292" height="26.4580" />
<rect x="53.9750" y="0.0000" width="0.5292" height="26.4580" />
<rect x="55.0333" y="0.0000" width="1.0583" height="26.4580" />
<rect x="58.2083" y="0.0000" width="1.0583" height="26.4580" />
<rect x="61.3833" y="0.0000" width="0.5292" height="26.4580" />
<rect x="62.4417" y="0.0000" width="0.5292" height="26.4580" />
<rect x="64.0292" y="0.0000" width="1.0583" height="26.4580" />
<rect x="65.6167" y="0.0000" width="1.0583" height="26.4580" />
<rect x="67.2042" y="0.0000" width="2.1167" height="26.4580" />
<rect x="69.8500" y="0.0000" width="0.5292" height="26.4580" />
<rect x="70.9083" y="0.0000" width="1.0583" height="26.4580" />
<rect x="73.0250" y="0.0000" width="0.5292" height="26.4580" />
<rect x="75.6708" y="0.0000" width="1.0583" height="26.4580" />
<rect x="77.2583" y="0.0000" width="1.0583" height="26.4580" />
<rect x="79.3750" y="0.0000" width="1.0583" height="26.4580" />
<rect x="81.4917" y="0.0000" width="1.5875" height="26.4580" />
<rect x="83.6083" y="0.0000" width="0.5292" height="26.4580" />
<rect x="85.7250" y="0.0000" width="1.0583" height="26.4580" />
<rect x="87.3125" y="0.0000" width="0.5292" height="26.4580" />
<rect x="88.3708" y="0.0000" width="1.0583" height="26.4580" />
<rect x="90.4875" y="0.0000" width="0.5292" height="26.4580" />
<rect x="93.1333" y="0.0000" width="0.5292" height="26.4580" />
<rect x="94.1917" y="0.0000" width="2.1167" height="26.4580" />
<rect x="97.3667" y="0.0000" width="0.5292" height="26.4580" />
<rect x="98.9542" y="0.0000" width="0.5292" height="26.4580" />
<rect x="100.5417" y="0.0000" width="2.1167" height="26.4580" />
<rect x="103.1875" y="0.0000" width="0.5292" height="26.4580" />
<rect x="104.7750" y="0.0000" width="0.5292" height="26.4580" />
<rect x="106.8917" y="0.0000" width="1.0583" height="26.4580" />
<rect x="109.5375" y="0.0000" width="0.5292" height="26.4580" />
<rect x="110.5958" y="0.0000" width="1.0583" height="26.4580" />
<rect x="113.2417" y="0.0000" width="1.5875" height="26.4580" />
<rect x="115.3583" y="0.0000" width="0.5292" height="26.4580" />
<rect x="116.4167" y="0.0000" width="1.0583" height="26.4580" />
</g>
</svg>
